<svg width="23" height="23" viewBox="0 0 23 23" fill="none" xmlns="http://www.w3.org/2000/svg">
<path fill-rule="evenodd" clip-rule="evenodd" d="M5.45841 0.0878042C4.50853 0.246921 3.42476 0.722955 2.60039 1.3431C1.54544 2.13679 0.699741 3.32146 0.293718 4.57444C-0.00960137 5.51035 3.43884e-05 5.28076 3.43884e-05 11.5831V17.3993L0.167312 18.0165C0.485326 19.1903 1.07711 20.2181 1.91965 21.0602C2.76278 21.9027 3.79234 22.4946 4.96527 22.8109L5.58292 22.9775L11.2448 22.9939C16.305 23.0086 16.9624 23.0011 17.4309 22.9237C20.2245 22.4617 22.4605 20.2383 22.9086 17.4768C23.0318 16.7179 23.0299 6.2593 22.9064 5.52609C22.4402 2.75652 20.2118 0.530837 17.4583 0.0845418C16.7506 -0.0301507 6.14521 -0.0272567 5.45841 0.0878042ZM5.96793 2.21506C4.19531 2.42745 2.73628 3.71075 2.22587 5.50651L2.107 5.92475V11.5567V17.1887L2.22508 17.6098C2.67229 19.2045 3.86476 20.3863 5.45125 20.8071L5.89894 20.9258H11.4818H17.0647L17.5124 20.8081C18.4345 20.5658 19.3058 20.0145 19.8808 19.3097C20.2124 18.9033 20.5812 18.1725 20.7388 17.6098L20.8566 17.1887V11.5567V5.92475L20.7377 5.50367C20.2896 3.91687 19.1156 2.74379 17.5387 2.30723L17.1174 2.19059L11.7188 2.18169C8.74963 2.17685 6.16176 2.19185 5.96793 2.21506ZM17.3281 4.00014C16.7508 4.14057 16.2483 4.77904 16.2483 5.37208C16.2483 5.6381 16.4054 6.03618 16.5998 6.2632C16.869 6.57759 17.2339 6.73976 17.6704 6.73891C18.0815 6.73818 18.3631 6.62385 18.643 6.3441C18.923 6.06429 19.0374 5.7829 19.0381 5.37208C19.0398 4.45275 18.2086 3.78591 17.3281 4.00014ZM10.5075 5.66357C9.27874 5.85769 8.00179 6.53532 7.15008 7.44517C5.85759 8.82596 5.28561 10.6826 5.58477 12.5261C5.68795 13.1618 5.86644 13.6889 6.19146 14.3178C7.82082 17.4705 11.8329 18.4942 14.8263 16.521C15.2332 16.2529 15.9102 15.6191 16.2217 15.2149C17.572 13.4626 17.8425 11.0091 16.9038 9.02834C16.4809 8.13601 15.6496 7.15115 14.886 6.63796C13.5856 5.76384 12.044 5.42077 10.5075 5.66357ZM10.7708 7.7643C9.94 7.94247 9.35732 8.25634 8.76496 8.84464C8.38811 9.21894 8.27198 9.37689 8.06715 9.79361C7.72833 10.483 7.64153 10.8479 7.64169 11.5831C7.6418 12.0645 7.66661 12.2692 7.76283 12.5831C8.20435 14.0239 9.30544 15.0478 10.7292 15.3416C13.2639 15.8649 15.6391 13.6777 15.3155 11.1184C15.1971 10.1819 14.8555 9.49506 14.169 8.81338C13.8199 8.46672 13.645 8.34008 13.2423 8.14259C12.9692 8.00874 12.6037 7.8621 12.4299 7.81673C11.9832 7.70019 11.1872 7.67503 10.7708 7.7643Z" fill="white"/>
</svg>
