<svg width="309" height="259" viewBox="0 0 309 259" fill="none" xmlns="http://www.w3.org/2000/svg">
<path d="M115.793 159.811L106.082 169.666V242.476L114.8 250.771H82.1948L92.0474 242.476V194.763L69.5783 256.585H62.7736L62.2069 254.67H68.3735L92.0474 188.737V177.89L65.6798 250.7H60.718L41.2968 193.487V230.991C41.2968 236.001 41.6276 239.546 42.2891 241.625C42.9507 243.705 44.51 245.998 46.9673 248.503L53.3465 256.585H16.2758L15 254.67H49.8025L47.1799 250.771H15.567L17.0555 249.991C22.3007 247.108 25.7502 244.201 27.4041 241.271C29.1053 238.294 29.9558 233.614 29.9558 227.234V168.602L20.5996 159.811H57.245L46.9673 169.098L67.0263 228.439L69.5783 222.271L51.4328 169.666L60.718 162.789L62.2069 163.994L53.3465 170.233L70.2165 219.647L88.5037 169.098L79.8559 159.811H115.793ZM35.5554 176.614V227.517C35.5554 235.316 36.2879 240.68 37.7528 243.611C39.2649 246.541 42.36 248.668 47.0381 249.991L46.4002 248.928C41.7693 245.714 39.4539 241.082 39.4539 235.032V229.786V187.886L35.5554 176.614ZM119.762 165.341L111.753 171.083V242.547L124.086 256.585H86.4482L85.4558 254.67H119.762L109.91 243.54V169.878L118.273 164.136L119.762 165.341ZM128.197 159.811H161.511L151.871 169.24V199.868C152.958 200.056 154.233 200.198 155.698 200.293V169.949L163.425 162.293L164.842 163.569L157.542 170.8V200.364L159.88 200.576C163.519 200.907 167.039 201.073 170.442 201.073C175.356 201.073 179.586 200.836 183.129 200.364V167.751L174.482 159.811H207.229L197.447 169.24V243.114L206.024 250.771H173.419L183.129 242.476V212.416C179.16 213.362 175.073 213.834 170.867 213.834C166.898 213.834 162.787 213.621 158.534 213.196L157.542 213.125V243.114L169.236 256.585H132.591L130.748 254.67H165.339L155.698 244.107V211.494L157.754 211.636C163.991 212.109 168.504 212.345 171.292 212.345C175.829 212.345 179.774 211.731 183.129 210.502V207.95C178.687 208.611 173.513 208.942 167.607 208.942C164.44 208.942 162.125 208.872 160.66 208.729L153.501 208.092C153.218 208.044 152.674 207.997 151.871 207.95V243.114L160.944 250.771H128.197L137.695 242.476V211.494C133.725 211.494 130.56 213.054 128.197 216.174L126.708 215.465C129.449 212.014 133.111 210.1 137.695 209.722V207.099C132.403 207.099 128.221 209.107 125.149 213.125L124.086 212.416C126.873 205.61 131.41 201.593 137.695 200.364V168.461L128.197 159.811ZM210.206 163.781L202.976 170.8V243.114L214.742 256.585H177.955L176.183 254.67H210.702L201.204 243.965V170.091L209.072 162.293L210.206 163.781ZM284.205 160.591C281.748 163.899 279.787 167.35 278.322 170.942C275.44 178.031 273.526 182.38 272.581 183.987L272.227 184.412C272.038 183.892 271.896 183.49 271.801 183.207C270.478 178.953 269.391 175.999 268.541 174.345C267.69 172.69 266.415 171.107 264.713 169.595C260.413 165.766 255.522 163.852 250.041 163.852C244.985 163.852 240.779 165.27 237.424 168.106C234.069 170.895 232.392 174.416 232.392 178.67C232.392 186.61 238.369 192.022 250.325 194.905L262.303 197.812C279.362 201.924 287.891 210.928 287.891 224.823C287.891 232.575 284.961 239.097 279.102 244.391C273.29 249.637 266.084 252.26 257.484 252.26C252.096 252.26 246.071 251.433 239.409 249.778L231.116 247.723C227.761 246.919 224.996 246.517 222.822 246.517C219.94 246.517 216.963 247.439 213.892 249.282L213.325 248.29C219.184 239.451 223.295 231.038 225.658 223.051L226.933 223.405C227.926 230.826 230.903 236.592 235.865 240.704C240.826 244.816 247.324 246.872 255.357 246.872C261.689 246.872 266.721 245.406 270.454 242.476C274.188 239.546 276.054 235.599 276.054 230.636C276.054 224.917 273.455 220.191 268.257 216.457C264.524 213.811 256.869 211.353 245.292 209.084C236.361 207.335 229.887 204.429 225.87 200.364C221.854 196.299 219.845 190.651 219.845 183.419C219.845 175.952 222.515 169.902 227.855 165.27C233.242 160.591 240.236 158.252 248.836 158.252C254.365 158.252 260.815 159.244 268.186 161.229C271.636 162.174 274.188 162.647 275.842 162.647C278.157 162.647 280.685 161.843 283.426 160.236L284.205 160.591ZM288.6 163.569L287.962 164.632C286.025 167.893 284.371 171.013 283.001 173.99C279.693 180.938 277.826 184.814 277.401 185.618L277.047 186.114L275.345 185.404L275.629 184.767C277 181.647 278.984 177.582 281.583 172.573L286.403 163.214L286.757 162.647L288.6 163.569ZM267.903 177.677C262.705 172.147 257.129 169.382 251.175 169.382C247.584 169.382 244.607 170.422 242.244 172.502C239.882 174.581 238.7 177.228 238.7 180.442C238.7 183.94 241.086 187.531 245.859 191.218L246.426 191.572L246.071 192.14C239.834 189.351 236.715 185.31 236.715 180.016C236.715 176.33 238.039 173.329 240.685 171.013C243.331 168.697 246.78 167.539 251.033 167.539C255.097 167.539 258.641 168.413 261.666 170.162C264.737 171.863 266.981 174.274 268.399 177.393L267.903 177.677ZM284.205 205.823C290.632 210.691 293.846 217.355 293.846 225.815C293.846 234.843 290.348 242.5 283.355 248.786C276.361 255.025 267.856 258.144 257.838 258.144C252.734 258.144 248.127 257.624 244.016 256.585L232.675 253.82C230.029 253.158 227.194 252.827 224.17 252.827C221.476 252.827 218.995 253.371 216.727 254.458L215.877 252.402C218.333 251.267 220.838 250.7 223.39 250.7C226.225 250.7 229.462 251.125 233.101 251.976L244.016 254.6C248.363 255.639 252.947 256.159 257.767 256.159C267.218 256.159 275.251 253.158 281.867 247.155C288.529 241.106 291.861 233.803 291.861 225.249C291.861 218.017 289.309 211.684 284.205 206.248V205.823ZM233.738 226.241C235.487 234.748 240.165 240.775 247.773 244.32V244.887C238.983 242.335 233.667 236.238 231.824 226.595L233.738 226.241ZM224.878 203.27L227.288 204.617C228.847 207.406 233.408 209.722 240.968 211.565L252.38 214.401C260.13 216.339 265.28 218.017 267.832 219.435C270.431 220.806 272.274 222.909 273.361 225.744L272.865 226.029C270.738 223.571 268.423 221.774 265.918 220.64C263.461 219.506 258.712 218.111 251.671 216.457C241.464 214.094 234.613 212.062 231.116 210.36C227.619 208.611 225.54 206.248 224.878 203.27Z" fill="white"/>
<path d="M0 146L309 146" stroke="white" stroke-width="7" stroke-miterlimit="10"/>
<path d="M80.8318 128.663L86.9751 140.263C87.414 141.141 86.7871 142.206 85.7841 142.206H61.9628C61.4613 142.206 61.0226 141.956 60.8345 141.517L17.6427 66.7142C12.1889 57.2463 15.4486 45.145 24.9145 39.6899L51.7448 24.2027C52.3717 23.8265 53.1866 24.0773 53.5627 24.7044L55.5687 28.1529C55.9448 28.7799 55.6941 29.5951 55.0672 29.9713L32.8758 42.7623C32.2489 43.1385 31.9982 43.9536 32.3743 44.5806L32.8758 45.3958C33.2519 46.0228 34.0668 46.2736 34.6937 45.8974L56.8851 33.1063C57.512 32.7301 58.3269 32.9809 58.7031 33.6079L59.0792 34.2976C59.4553 34.9247 59.2046 35.7398 58.5777 36.116L36.3863 48.907C35.7595 49.2832 35.5087 50.0984 35.8848 50.7254L36.3863 51.5405C36.7625 52.1675 37.5774 52.4183 38.2042 52.0421L60.3956 39.251C61.0225 38.8748 61.8374 39.1256 62.2136 39.7527L62.527 40.317C62.9031 40.944 62.6524 41.7591 62.0255 42.1353L39.8342 54.9263C39.2073 55.3026 38.9565 56.1177 39.3326 56.7447L39.8342 57.5598C40.2103 58.1868 41.0252 58.4376 41.652 58.0614L63.8434 45.2704C64.4703 44.8941 65.2853 45.145 65.6614 45.772L66.2256 46.7125C66.6017 47.3395 66.3509 48.1546 65.7241 48.5308L43.5327 61.3219C42.9058 61.6981 42.655 62.5132 43.0312 63.1402L43.5327 63.9553C43.9088 64.5823 44.7237 64.8331 45.3506 64.4569L67.542 51.6659C68.1689 51.2897 68.9838 51.5405 69.3599 52.1675C69.7361 52.7945 69.4853 53.6096 68.8584 53.9858L46.667 66.7769C46.0402 67.1531 45.7894 67.9682 46.1655 68.5952L46.667 69.4103C47.0432 70.0373 47.8581 70.2882 48.485 69.9119L70.6764 57.1209C71.3033 56.7447 72.1182 56.9955 72.4943 57.6225L72.8704 58.3122C73.2466 58.9392 72.9958 59.7543 72.3689 60.1306L50.1776 72.9216C49.5507 73.2978 49.2999 74.1129 49.676 74.7399L50.1776 75.5551C50.5537 76.1821 51.3686 76.4329 51.9955 76.0567L74.1869 63.2656C74.8138 62.8894 75.6287 63.1402 76.0048 63.7672L76.3183 64.3315C76.6944 64.9585 76.4436 65.7737 75.8168 66.1499L53.6254 78.9409C52.9986 79.3171 52.7477 80.1322 53.1239 80.7593L53.6254 81.5744C54.0016 82.2014 54.8164 82.4522 55.4433 82.076L77.6347 69.2849C78.2616 68.9087 79.0765 69.1595 79.4526 69.7865L80.0168 70.7271C80.393 71.3541 80.1422 72.1692 79.5153 72.5454L57.3239 85.3364C56.6971 85.7127 56.4463 86.5278 56.8224 87.1548L57.3239 87.9699C57.7001 88.5969 58.515 88.8477 59.1419 88.4715L81.3333 75.6805C81.9601 75.3042 82.7751 75.5551 83.1512 76.1821L83.2766 76.3702C83.6527 76.9972 83.402 77.8123 82.7751 78.1885L60.5837 90.9796C59.9568 91.3558 59.7061 92.1709 60.0822 92.7979L60.5837 93.613C60.9598 94.24 61.7748 94.4908 62.4017 94.1146L84.593 81.3236C85.2199 80.9474 86.0348 81.1982 86.411 81.8252L86.7871 82.5149C87.1632 83.1419 86.9125 83.957 86.2856 84.3332L64.0942 97.1243C63.4673 97.5005 63.2166 98.3156 63.5927 98.9426L64.0942 99.7577C64.4703 100.385 65.2853 100.636 65.9121 100.259L88.1035 87.4683C88.7304 87.0921 89.5453 87.3429 89.9215 87.9699L90.2349 88.5342C90.611 89.1612 90.3603 89.9763 89.7334 90.3525L67.542 103.144C66.9151 103.52 66.6644 104.335 67.0405 104.962L67.542 105.777C67.9181 106.404 68.7331 106.655 69.3599 106.279L91.5513 93.4876C92.1782 93.1114 92.9931 93.3622 93.3693 93.9892L93.9335 94.9297C94.3096 95.5567 94.0588 96.3719 93.432 96.7481L71.2406 109.539C70.6137 109.915 70.3629 110.73 70.7391 111.357L71.2406 112.173C71.6167 112.8 72.4317 113.05 73.0586 112.674L95.2499 99.8831C95.8768 99.5069 96.6917 99.7577 97.0678 100.385L97.1305 100.447C97.5067 101.074 97.2559 101.89 96.629 102.266L74.375 114.743C73.7481 115.12 73.4973 115.935 73.8734 116.562L74.375 117.377C74.7511 118.004 75.5661 118.255 76.1929 117.878L98.3843 105.087C99.0112 104.711 99.8261 104.962 100.202 105.589L100.578 106.279C100.954 106.906 100.704 107.721 100.077 108.097L77.8855 120.888C77.2586 121.264 77.0078 122.079 77.3839 122.706L77.8855 123.521C78.2616 124.149 79.0765 124.399 79.7034 124.023L101.895 111.232C102.522 110.856 103.337 111.107 103.713 111.734L104.026 112.298C104.402 112.925 104.152 113.74 103.525 114.116L81.3333 126.97C80.7064 127.221 80.5183 128.036 80.8318 128.663Z" fill="white"/>
<mask id="mask0_2122_15" style="mask-type:luminance" maskUnits="userSpaceOnUse" x="115" y="0" width="121" height="143">
<path d="M235.608 0H115.624V142.206H235.608V0Z" fill="white"/>
</mask>
<g mask="url(#mask0_2122_15)">
<path d="M126.719 161.707C123.397 152.427 121.453 142.959 120.2 133.24C118.319 118.568 117.88 103.896 118.068 89.1612C118.256 70.7898 119.385 52.4183 121.14 34.1095C121.704 27.9648 124.086 22.5725 129.039 18.6223C135.683 13.3554 145.024 17.1802 146.278 25.5822C146.779 29.0307 146.278 32.4166 145.713 35.7398C142.767 53.3588 140.26 71.1033 138.692 88.9104C137.188 106.279 136.498 123.71 137.376 141.141C137.815 149.856 138.692 158.509 140.134 167.099C140.573 169.858 139.695 172.115 137.752 173.055C135.934 173.871 133.427 173.181 131.922 170.924C129.979 167.977 128.412 164.779 126.719 161.707ZM132.549 27.6513C130.48 28.4664 129.477 30.7864 130.355 32.7928C131.17 34.7993 133.552 35.8025 135.558 34.9874C137.627 34.1095 138.567 31.8523 137.752 29.7832C136.874 27.7767 134.618 26.8362 132.549 27.6513ZM129.54 158.509C130.167 160.139 131.985 160.891 133.615 160.264C135.245 159.637 136.06 157.694 135.37 156.126C134.68 154.559 132.862 153.806 131.295 154.433C129.665 155.123 128.913 156.879 129.54 158.509Z" fill="white"/>
<path d="M141.263 156.377C141.2 156.063 141.138 155.813 141.075 155.624C140.699 151.11 140.26 146.596 139.947 142.081C139.884 141.517 140.197 140.764 140.573 140.263C142.141 138.444 143.77 136.751 145.338 134.996C145.965 134.306 146.591 133.554 147.156 132.739C148.472 130.92 148.409 130.105 147.093 128.287C145.4 126.029 143.958 123.647 143.269 120.825C142.642 118.129 143.144 115.872 145.024 113.74C161.574 94.5535 177.998 75.2415 194.485 56.0549C195.989 54.2993 197.87 52.7318 199.876 51.4777C203.01 49.4713 206.521 49.534 209.78 51.2896C215.485 54.2993 218.87 59.1273 220.249 65.3974C220.625 67.0276 220.124 68.4071 218.995 69.6611C200.753 89.9763 182.511 110.291 164.332 130.669C156.872 139.009 149.412 147.285 142.015 155.624C141.827 155.875 141.576 156.063 141.263 156.377ZM143.708 148.477C143.959 148.226 144.209 148.038 144.397 147.787C147.093 144.777 149.788 141.705 152.421 138.695C165.648 123.71 178.813 108.787 192.04 93.8011C198.434 86.5277 204.828 79.3171 211.222 72.0437C212.601 70.4762 213.416 68.6579 213.228 66.526C212.852 62.3878 210.47 59.4408 207.398 56.9954C207.774 57.6852 208.213 58.3122 208.652 59.0019C210.846 62.1369 211.16 65.4601 209.216 68.846C208.401 70.2254 207.524 71.6048 206.458 72.7962C201.944 78.0631 197.431 83.2673 192.917 88.4715C176.744 107.156 160.508 125.841 144.272 144.464C143.144 145.78 142.956 146.972 143.708 148.477Z" fill="white"/>
</g>
<mask id="mask1_2122_15" style="mask-type:luminance" maskUnits="userSpaceOnUse" x="212" y="0" width="37" height="142">
<path d="M249 4.57764e-05H212V142H249V4.57764e-05Z" fill="white"/>
</mask>
<g mask="url(#mask1_2122_15)">
<path d="M232.285 209.422C232.661 200.519 232.724 191.552 233.476 182.649C234.667 167.788 236.548 152.928 237.739 138.068C238.993 122.894 239.933 107.658 240.811 92.4216C241.312 84.2704 239.557 76.4328 236.36 68.9086C234.981 65.5855 232.787 63.8925 229.213 63.2655C218.682 61.3845 212.162 50.9761 214.921 41.0066C217.742 30.7863 228.273 25.2686 238.428 28.7172C248.584 32.1657 253.223 44.3298 248.333 53.9857C247.205 56.243 246.264 58.8764 246.139 61.3218C245.387 74.7399 244.635 88.2206 244.509 101.701C244.446 105.652 245.888 109.978 247.769 113.552C250.339 118.317 251.279 122.644 250.088 128.099C244.384 154.12 239.118 180.203 233.727 206.287C233.476 207.353 233.225 208.419 232.912 209.485C232.661 209.485 232.473 209.422 232.285 209.422ZM222.569 56.6192C228.649 61.9488 237.99 61.3845 243.318 55.2398C248.647 49.0951 248.082 39.878 242.002 34.4857C236.109 29.2815 226.831 29.9085 221.44 35.8651C215.986 41.8844 216.488 51.2269 222.569 56.6192ZM243.945 124.211C244.07 124.525 244.258 124.775 244.384 125.089C245.512 124.587 247.017 124.337 247.644 123.459C248.333 122.518 248.208 120.951 248.458 119.697C248.145 119.634 247.769 119.509 247.455 119.446C246.264 121.013 245.073 122.644 243.945 124.211ZM247.017 118.38C242.942 118.192 241.814 119.697 243.005 123.647C244.321 121.891 245.512 120.324 247.017 118.38Z" fill="white"/>
</g>
<path d="M252.518 112.988C250.136 109.602 248.506 107.219 249.76 102.642C253.396 89.7256 255.966 76.5583 258.787 63.4538C259.101 62.0743 258.662 60.5068 258.348 59.0647C256.844 51.4151 261.169 43.0132 268.566 39.3765C275.587 35.9279 284.05 37.5582 289.065 43.3267C294.331 49.4087 294.895 58.0615 290.131 64.7078C285.868 70.6644 279.85 72.9217 272.766 71.6676C269.883 71.166 267.626 71.793 266.247 74.0503C263.551 78.3767 260.48 82.6404 258.85 87.3429C256.342 94.6163 254.963 102.203 253.082 109.665C252.894 110.605 252.769 111.608 252.518 112.988ZM265.808 45.5212C260.605 51.3524 260.981 59.9425 266.686 65.2094C272.453 70.4763 281.417 70.0374 286.558 64.1435C291.761 58.2496 291.259 49.4714 285.367 44.2672C279.662 39.1257 271.011 39.69 265.808 45.5212Z" fill="white"/>
</svg>
