<svg width="338" height="332" viewBox="0 0 338 332" fill="none" xmlns="http://www.w3.org/2000/svg">
<path d="M20.6154 288.619L18.5936 290.999C20.9458 291.21 23.047 291.501 24.8971 291.871C26.7472 292.214 28.4519 292.611 30.0113 293.06C31.5971 293.483 32.9847 293.932 34.174 294.408C38.35 296.153 40.438 298.585 40.438 301.705C40.438 303.608 39.5658 305.472 37.8214 307.296C36.077 309.12 33.804 310.746 31.0024 312.173C28.2273 313.601 25.3596 314.711 22.3994 315.504C19.4657 316.324 16.7963 316.734 14.3912 316.734C10.3738 316.734 7.24184 315.993 4.99531 314.513C2.74872 313.006 1.62545 310.958 1.62545 308.367C1.62545 306.569 2.31263 304.454 3.68699 302.022C5.06138 299.59 7.189 296.563 10.0699 292.941C7.90257 292.836 6.36967 292.518 5.47104 291.99C4.57242 291.434 4.12309 290.668 4.12309 289.69C4.12309 289.082 4.29488 288.619 4.63849 288.302C4.98208 287.985 5.44459 287.76 6.02608 287.628C6.60751 287.469 7.71758 287.284 9.35623 287.073C11.0213 286.861 13.149 286.597 15.7391 286.28C18.6199 282.737 21.1969 280.08 23.4699 278.309C25.7693 276.511 28.2273 275.481 30.8439 275.216C31.0553 275.19 31.2799 275.177 31.5178 275.177C31.7821 275.177 31.9143 275.242 31.9143 275.375C31.9143 275.533 31.6103 275.957 31.0024 276.644C30.421 277.331 29.4563 278.428 28.1083 279.935C26.7869 281.442 25.2142 283.226 23.3906 285.288C28.3595 284.628 32.4165 283.874 35.5616 283.028C38.7332 282.155 41.1252 281.124 42.7374 279.935C44.3496 278.746 45.1557 277.424 45.1557 275.97C45.1557 274.198 44.2968 272.916 42.5788 272.123C40.8609 271.33 38.2311 270.934 34.6895 270.934C32.7336 270.934 30.4871 271.132 27.9498 271.529C25.4389 271.925 23.1527 272.374 21.0912 272.877C19.0561 273.379 17.2324 273.921 15.6202 274.503C14.0344 275.057 13.2415 275.467 13.2415 275.731C13.2415 275.811 13.3207 275.89 13.4793 275.97C14.7744 276.446 15.4219 276.842 15.4219 277.159C15.4219 277.582 13.4397 278.402 9.47515 279.618C5.51066 280.807 2.84123 281.402 1.46687 281.402C0.488957 281.402 0 280.913 0 279.935C0 278.772 1.0572 276.683 3.17161 273.67C5.31244 270.629 7.25507 268.686 8.99941 267.841C9.60729 267.55 11.0213 267.087 13.2415 266.453C15.4616 265.818 17.8931 265.21 20.5361 264.628C23.2056 264.047 25.9146 263.558 28.6634 263.161C31.4121 262.765 33.8437 262.567 35.9581 262.567C40.9533 262.567 44.7064 263.465 47.2173 265.263C49.7281 267.034 50.9836 269.268 50.9836 271.964C50.9836 273.788 50.4021 275.547 49.2392 277.238C48.1027 278.93 46.3186 280.53 43.8871 282.037C41.4555 283.543 38.2839 284.865 34.3723 286.002C30.4871 287.139 25.9014 288.011 20.6154 288.619ZM16.413 293.734C15.0387 295.373 13.8097 296.827 12.7261 298.096C11.6688 299.339 10.9024 300.357 10.4267 301.15C9.97734 301.916 9.75267 302.696 9.75267 303.489C9.75267 304.758 10.4002 305.895 11.6953 306.9C13.0168 307.878 14.9065 308.367 17.3646 308.367C19.6376 308.367 22.0558 307.97 24.6196 307.177C27.2097 306.357 29.377 305.3 31.1214 304.005C32.8922 302.709 33.7776 301.401 33.7776 300.079C33.7776 298.942 33.13 298.004 31.835 297.264C30.5399 296.523 28.5709 295.875 25.9279 295.321C23.2848 294.739 20.1133 294.21 16.413 293.734ZM48.367 295.836C52.3843 292.188 56.2828 289.478 60.0623 287.707C63.842 285.936 66.7626 285.05 68.8238 285.05C69.3792 285.05 69.8945 285.288 70.3703 285.764C70.8454 286.213 71.2159 286.742 71.4798 287.35C71.7707 287.958 71.9162 288.408 71.9162 288.698C71.9162 289.174 71.7312 289.531 71.3614 289.769C70.9909 289.98 70.3433 290.245 69.4187 290.562C69.6036 290.985 69.8412 291.527 70.1321 292.188C70.4229 292.849 70.6474 293.391 70.806 293.814C70.9646 294.21 71.0442 294.567 71.0442 294.884C71.0442 295.519 70.3966 296.708 69.1015 298.453C67.8327 300.172 66.9344 301.44 66.4053 302.26C65.9032 303.079 65.6524 304.084 65.6524 305.274C65.6524 307.23 66.5507 308.208 68.348 308.208C70.1985 308.208 73.0922 306.476 77.0302 303.013V305.432C70.3433 312.861 65.5596 316.575 62.6791 316.575C61.6479 316.575 60.908 316.231 60.4587 315.544C60.0359 314.883 59.8244 313.891 59.8244 312.57C59.8244 310.482 60.5777 307.455 62.0842 303.489C58.2254 307.772 55.3577 310.825 53.4812 312.649C51.6047 314.447 50.0585 315.345 48.8427 315.345C48.2613 315.345 47.5345 314.843 46.6622 313.839C45.79 312.834 45.0103 311.539 44.3232 309.953C43.6624 308.34 43.3321 306.675 43.3321 304.957C43.3321 303.714 43.451 302.683 43.6889 301.863C43.9267 301.018 44.3893 300.159 45.0765 299.286C45.7637 298.414 46.8605 297.264 48.367 295.836ZM67.3569 291.474C60.4851 294.62 55.5824 297.29 52.6486 299.484C49.7414 301.678 48.2877 303.939 48.2877 306.265C48.2877 307.111 48.4331 307.811 48.7238 308.367C49.0145 308.895 49.4109 309.16 49.9131 309.16C50.2039 309.16 50.7192 308.974 51.4593 308.604C54.2344 306.965 56.7717 304.837 59.0712 302.22C61.3708 299.577 64.1322 295.995 67.3569 291.474ZM76.3168 305.987V303.41C77.7442 301.718 78.8275 300.277 79.5678 299.088C78.7221 298.797 78.1009 298.44 77.7041 298.017C77.3342 297.594 77.1493 296.96 77.1493 296.114C77.1493 295.162 77.5455 293.959 78.3385 292.505C79.1315 291.051 80.1094 289.69 81.2723 288.421C82.4351 287.152 83.4927 286.332 84.4443 285.962C84.8141 285.777 85.1708 285.685 85.5143 285.685C86.0428 285.685 86.3073 285.936 86.3073 286.438C86.3073 286.887 85.8974 287.8 85.078 289.174C90.5231 288.328 93.959 287.906 95.3857 287.906C95.9412 287.906 96.3242 287.958 96.5354 288.064C96.9849 288.302 97.3554 288.857 97.6456 289.73C97.9365 290.602 98.0819 291.474 98.0819 292.347C98.0819 292.902 97.8306 293.51 97.3284 294.171C96.8526 294.805 96.0201 295.744 94.831 296.986C93.4305 298.493 92.2539 300.132 91.3029 301.903C90.3513 303.674 89.8755 305.009 89.8755 305.908C89.8755 307.15 90.6415 307.772 92.1749 307.772C93.7872 307.772 96.5887 306.133 100.579 302.855V305.511C98.386 307.811 96.5756 309.622 95.1482 310.944C93.7208 312.266 92.3993 313.323 91.1838 314.117C89.9677 314.883 88.8844 315.266 87.9328 315.266C86.8226 315.266 85.8974 314.764 85.1576 313.76C84.4173 312.728 84.0474 311.248 84.0474 309.318C84.0474 308.182 84.3383 306.886 84.9194 305.432C85.5012 303.978 86.3468 302.405 87.457 300.714C88.5935 298.995 89.8623 297.29 91.2628 295.598C90.5231 295.757 89.6906 295.929 88.7653 296.114C87.84 296.272 86.8621 296.444 85.8315 296.629C84.801 296.814 84.0079 296.96 83.4532 297.066C81.8145 300.344 79.4355 303.317 76.3168 305.987ZM126.666 303.013V305.591C123.917 307.335 121.75 308.208 120.164 308.208C119.292 308.208 118.367 308.063 117.389 307.772C115.01 310.785 112.962 312.993 111.244 314.394C109.553 315.795 107.848 316.495 106.13 316.495C104.148 316.495 102.615 315.451 101.531 313.363C100.474 311.274 99.945 308.684 99.945 305.591C99.945 301.388 101.214 296.814 103.751 291.871C106.288 286.9 109.341 282.261 112.909 277.952C116.504 273.617 119.979 270.034 123.336 267.206C126.693 264.378 128.966 262.963 130.155 262.963C131.291 262.963 131.859 263.743 131.859 265.303C131.859 272.229 122.979 284.31 105.218 301.546C105.165 302.022 105.139 302.961 105.139 304.361C105.139 308.009 106.117 309.834 108.072 309.834C108.839 309.834 109.605 309.53 110.372 308.922C111.165 308.287 112.367 307.098 113.979 305.353C113.345 303.926 113.028 302.868 113.028 302.181C113.028 300.727 113.623 299.154 114.812 297.462C116.001 295.77 117.35 294.316 118.856 293.1C120.389 291.858 121.499 291.236 122.186 291.236C123.27 291.236 123.811 292.016 123.811 293.576C123.811 294.766 123.494 296.193 122.86 297.858C122.252 299.524 121.353 301.427 120.164 303.568C120.614 303.939 120.97 304.216 121.234 304.401C121.499 304.56 121.896 304.639 122.424 304.639C123.64 304.639 125.054 304.098 126.666 303.013ZM106.527 297.066C107.901 295.875 109.275 294.475 110.65 292.862C112.05 291.223 114.085 288.725 116.755 285.367C119.319 282.142 121.327 279.459 122.781 277.318C124.261 275.15 125.371 273.353 126.111 271.925C126.851 270.497 127.221 269.519 127.221 268.99C127.221 268.594 127.115 268.395 126.904 268.395C126.323 268.395 125.107 269.36 123.257 271.29C121.433 273.194 119.345 275.811 116.993 279.142C113.742 283.742 111.389 287.205 109.936 289.531C108.482 291.858 107.346 294.369 106.527 297.066ZM133.009 304.361V305.353C133.009 306.913 133.393 308.129 134.159 309.001C134.925 309.874 135.93 310.31 137.172 310.31C138.467 310.31 139.802 310.006 141.176 309.398C142.577 308.789 143.964 307.983 145.339 306.979C146.713 305.974 148.391 304.626 150.374 302.934V305.353C147.387 308.948 144.585 311.711 141.969 313.641C139.352 315.544 136.696 316.495 134 316.495C131.648 316.495 129.785 315.584 128.41 313.76C127.036 311.935 126.349 309.437 126.349 306.265C126.349 303.489 126.997 300.978 128.292 298.731C129.587 296.457 131.701 294.065 134.634 291.553C136.644 289.835 138.639 288.54 140.621 287.667C142.603 286.795 144.374 286.359 145.933 286.359C147.176 286.359 148.154 286.65 148.867 287.231C149.607 287.786 149.977 288.632 149.977 289.769C149.977 291.434 149.356 293.1 148.114 294.766C146.872 296.405 144.969 298.044 142.405 299.683C139.868 301.295 136.736 302.855 133.009 304.361ZM133.406 301.784C135.784 300.859 137.82 299.709 139.511 298.334C141.203 296.96 142.445 295.651 143.238 294.408C144.057 293.14 144.466 292.214 144.466 291.633C144.466 291.025 144.189 290.721 143.634 290.721C143.158 290.721 142.379 291.025 141.295 291.633C140.238 292.241 139.154 293.034 138.044 294.012C136.961 294.99 135.983 296.14 135.11 297.462C134.238 298.784 133.67 300.224 133.406 301.784ZM149.977 305.987V303.41C151.405 301.718 152.488 300.277 153.228 299.088C152.383 298.797 151.761 298.44 151.365 298.017C150.995 297.594 150.81 296.96 150.81 296.114C150.81 295.162 151.206 293.959 151.999 292.505C152.792 291.051 153.77 289.69 154.933 288.421C156.096 287.152 157.153 286.332 158.105 285.962C158.474 285.777 158.831 285.685 159.175 285.685C159.704 285.685 159.968 285.936 159.968 286.438C159.968 286.887 159.558 287.8 158.739 289.174C164.183 288.328 167.619 287.906 169.047 287.906C169.602 287.906 169.985 287.958 170.196 288.064C170.645 288.302 171.016 288.857 171.307 289.73C171.597 290.602 171.742 291.474 171.742 292.347C171.742 292.902 171.492 293.51 170.989 294.171C170.514 294.805 169.681 295.744 168.491 296.986C167.091 298.493 165.915 300.132 164.963 301.903C164.012 303.674 163.536 305.009 163.536 305.908C163.536 307.15 164.303 307.772 165.835 307.772C167.448 307.772 170.249 306.133 174.24 302.855V305.511C172.046 307.811 170.236 309.622 168.809 310.944C167.382 312.266 166.06 313.323 164.844 314.117C163.629 314.883 162.545 315.266 161.593 315.266C160.483 315.266 159.558 314.764 158.818 313.76C158.078 312.728 157.708 311.248 157.708 309.318C157.708 308.182 157.999 306.886 158.58 305.432C159.162 303.978 160.007 302.405 161.117 300.714C162.254 298.995 163.523 297.29 164.924 295.598C164.183 295.757 163.351 295.929 162.426 296.114C161.501 296.272 160.523 296.444 159.492 296.629C158.461 296.814 157.668 296.96 157.114 297.066C155.475 300.344 153.096 303.317 149.977 305.987ZM237.95 303.965C237.289 302.749 236.298 301.652 234.977 300.674C233.655 299.696 232.162 298.916 230.496 298.334C228.858 297.726 227.14 297.277 225.343 296.986C220.004 296.193 215.022 294.462 210.396 291.791C210 291.58 209.577 291.13 209.128 290.443C208.678 289.756 208.454 289.095 208.454 288.46C208.454 286.134 208.837 283.808 209.604 281.481C210.396 279.129 211.401 277.291 212.616 275.97C214.572 273.775 218.087 271.859 223.162 270.22C228.263 268.581 233.999 267.762 240.368 267.762C244.174 267.762 247.108 268.052 249.169 268.634C251.257 269.215 252.301 270.114 252.301 271.33C252.301 273.312 252.024 274.846 251.469 275.93C250.94 277.014 250.359 277.741 249.724 278.111C249.116 278.455 248.033 278.93 246.473 279.539C244.808 280.12 243.355 280.728 242.112 281.363C240.897 281.997 239.853 282.605 238.98 283.187C238.108 283.768 237.567 284.059 237.355 284.059C237.091 284.059 236.959 283.953 236.959 283.742C236.959 283.292 237.421 282.618 238.346 281.719C239.298 280.794 240.46 279.988 241.835 279.3C243.289 278.534 244.015 278.045 244.015 277.833C244.015 277.49 243.209 277.318 241.597 277.318C236.707 277.318 232.188 277.754 228.038 278.626C223.889 279.499 220.612 280.649 218.206 282.076C215.828 283.504 214.638 284.958 214.638 286.438C214.638 287.363 215.127 288.024 216.105 288.421C217.11 288.791 219.303 289.425 222.687 290.324C226.069 291.223 229.096 292.254 231.765 293.417C235.598 295.056 238.439 296.761 240.289 298.533C242.139 300.303 243.064 302.287 243.064 304.481C243.064 305.987 242.694 307.507 241.954 309.041C241.24 310.548 240.183 311.935 238.782 313.204C237.381 314.473 235.769 315.517 233.945 316.337C232.386 316.998 230.417 317.619 228.038 318.201C225.686 318.782 223.122 319.232 220.347 319.549C217.599 319.893 214.969 320.064 212.458 320.064C207.833 320.064 204.106 319.628 201.278 318.756C198.477 317.884 197.076 316.562 197.076 314.791C197.076 313.997 197.551 312.768 198.503 311.102C199.455 309.411 200.577 308.274 201.872 307.693C203.009 307.243 204.106 306.992 205.163 306.939C206.22 306.859 206.749 306.979 206.749 307.296C206.749 307.376 206.709 307.455 206.63 307.534C206.551 307.613 206.458 307.679 206.353 307.732C206.247 307.785 206.141 307.838 206.036 307.891C205.507 308.102 205.071 308.274 204.727 308.406C204.41 308.512 204.146 308.631 203.934 308.763C203.749 308.869 203.657 309.028 203.657 309.239C203.657 309.794 206.392 310.072 211.863 310.072C216.621 310.072 220.519 309.9 223.559 309.556C226.598 309.213 229.281 308.591 231.606 307.693C233.932 306.794 236.047 305.551 237.95 303.965ZM279.062 302.934V305.432C276.762 307.785 274.767 309.715 273.076 311.222C271.41 312.702 269.943 313.826 268.675 314.592C267.432 315.359 266.375 315.742 265.503 315.742C263.442 315.742 262.41 314.526 262.41 312.094C262.41 310.138 263.045 307.878 264.314 305.313C265.609 302.722 267.459 299.683 269.864 296.193C268.675 296.854 267.551 297.62 266.494 298.493C265.437 299.339 264.499 300.238 263.679 301.189C262.86 302.114 262.173 302.907 261.618 303.568C259.9 305.498 258.248 307.481 256.662 309.517C255.077 311.526 254.006 312.834 253.451 313.442C252.896 314.05 252.367 314.354 251.865 314.354C249.803 314.354 248.773 311.817 248.773 306.741C248.773 305.076 249.024 303.238 249.526 301.229C250.028 299.22 251.376 296.563 253.57 293.258C258.195 286.332 262.147 280.675 265.424 276.287C268.727 271.872 271.463 268.541 273.63 266.294C275.797 264.021 277.251 262.91 277.991 262.963C278.916 263.043 279.656 263.228 280.211 263.519C280.793 263.809 281.084 264.139 281.084 264.51C281.084 265.171 280.621 266.267 279.696 267.801C278.798 269.308 277.238 271.673 275.018 274.899C272.613 278.309 270.908 280.715 269.904 282.116C268.899 283.491 267.393 285.46 265.384 288.024C263.402 290.562 261.578 292.836 259.913 294.845C258.274 296.827 256.398 298.982 254.284 301.309V306.067C257.825 302.128 260.891 298.903 263.481 296.391C266.071 293.88 268.265 291.99 270.062 290.721C271.859 289.425 273.181 288.778 274.026 288.778C274.819 288.778 275.56 289.254 276.247 290.205C276.934 291.13 277.277 291.897 277.277 292.505C277.277 292.769 277.145 293.1 276.881 293.497C274.978 295.77 273.459 297.66 272.322 299.167C271.212 300.648 270.353 301.983 269.745 303.172C269.137 304.335 268.833 305.34 268.833 306.185C268.833 307.428 269.428 308.05 270.617 308.05C271.886 308.05 274.701 306.344 279.062 302.934ZM304.553 302.855V305.511C302.809 307.098 301.408 308.155 300.351 308.684C299.294 309.213 297.774 309.424 295.792 309.318C292.356 313.389 289.33 315.425 286.713 315.425C285.233 315.425 283.885 314.936 282.669 313.958C281.454 312.98 280.476 311.645 279.735 309.953C279.022 308.261 278.665 306.37 278.665 304.282C278.665 302.59 279.22 300.714 280.33 298.651C281.467 296.59 282.921 294.673 284.691 292.902C286.489 291.104 288.404 289.663 290.44 288.58C292.475 287.469 294.365 286.914 296.109 286.914C297.351 286.914 298.329 287.112 299.043 287.509C299.757 287.879 300.113 288.408 300.113 289.095C300.113 289.624 299.809 290.232 299.201 290.919C300.205 291.13 300.893 291.488 301.263 291.99C301.633 292.466 301.818 293.351 301.818 294.647C301.818 295.916 301.514 297.514 300.906 299.444C300.325 301.374 299.518 303.185 298.488 304.877L299.201 305.591H299.796C300.246 305.591 300.681 305.485 301.104 305.274C301.554 305.036 301.95 304.798 302.294 304.56C302.637 304.296 303.391 303.727 304.553 302.855ZM296.386 292.426C294.193 293.747 292.316 294.951 290.757 296.034C289.197 297.092 287.876 298.175 286.792 299.286C285.709 300.37 284.982 301.467 284.612 302.577C283.951 305.538 283.621 307.137 283.621 307.376C283.621 309.12 284.836 309.993 287.268 309.993C288.404 309.993 290.308 309.015 292.977 307.058C292.527 305.816 292.303 304.626 292.303 303.489C292.303 301.824 292.647 300.132 293.334 298.414C294.021 296.669 295.039 294.673 296.386 292.426ZM304.038 306.265V303.489C307.738 299.471 310.923 295.691 313.592 292.149C316.289 288.606 318.416 285.791 319.975 283.702C321.535 281.613 322.909 280.146 324.098 279.3C325.288 278.428 326.781 277.992 328.578 277.992C329.477 277.992 329.926 278.335 329.926 279.023C329.926 279.578 329.556 280.398 328.816 281.481C328.103 282.565 327.177 283.676 326.041 284.812C324.534 286.293 323.054 288.156 321.601 290.404C320.173 292.624 318.548 295.466 316.724 298.929C318.152 297.819 319.79 296.51 321.64 295.003C323.517 293.47 325.037 292.28 326.199 291.434C327.389 290.562 328.552 289.875 329.689 289.373C330.851 288.871 332.014 288.619 333.177 288.619C333.917 288.619 334.393 288.751 334.605 289.015C334.842 289.28 334.961 289.795 334.961 290.562C334.961 292.571 334.472 294.541 333.494 296.471C332.516 298.374 331.115 300.357 329.292 302.418C327.468 304.481 325.221 306.728 322.552 309.16C323.478 309.504 324.429 309.675 325.406 309.675C328.472 309.675 332.582 307.335 337.736 302.657V305.511C335.728 307.309 333.759 309.001 331.829 310.587C329.926 312.173 328.129 313.442 326.438 314.394C324.746 315.345 323.187 315.821 321.759 315.821C321.231 315.821 320.662 315.756 320.055 315.623C319.473 315.517 318.931 315.386 318.429 315.227C317.927 315.041 317.28 314.791 316.487 314.473C315.694 314.156 315.086 313.932 314.663 313.799C313.817 314.011 313.342 314.117 313.236 314.117C312.31 314.117 311.227 313.747 309.985 313.006C309.113 314.698 308.148 316.879 307.091 319.549C306.06 322.245 305.188 324.387 304.474 325.973C303.76 327.559 302.809 329.079 301.62 330.533C300.959 331.194 300.496 331.524 300.232 331.524C299.096 331.524 298.527 330.52 298.527 328.511C298.527 326.766 298.884 324.942 299.598 323.038C300.285 321.162 301.144 319.377 302.174 317.685C303.179 315.993 304.289 314.288 305.505 312.57C306.721 310.825 307.58 309.53 308.082 308.684C312.258 301.494 315.509 295.373 317.834 290.324C311.756 297.726 307.157 303.04 304.038 306.265ZM320.134 308.208C322.75 305.459 324.693 303.119 325.962 301.189C327.257 299.259 327.905 297.779 327.905 296.748C327.905 295.77 327.416 295.281 326.438 295.281C325.116 295.281 323.252 296.378 320.848 298.572C318.469 300.74 316.011 303.674 313.474 307.376C315.429 307.164 316.737 307.098 317.399 307.177C318.059 307.23 318.971 307.574 320.134 308.208Z" fill="#A67233"/>
<path d="M130.37 159.811L120.66 169.666V242.476L129.378 250.771H96.7724L106.625 242.476V194.763L84.1559 256.585H77.3512L76.7845 254.67H82.9511L106.625 188.737V177.89L80.2574 250.7H75.2957L55.8744 193.487V230.991C55.8744 236.001 56.2052 239.546 56.8667 241.625C57.5283 243.705 59.0877 245.998 61.5449 248.503L67.9242 256.585H30.8535L29.5776 254.67H64.3801L61.7575 250.771H30.1446L31.6332 249.991C36.8784 247.108 40.3279 244.201 41.9817 241.271C43.6829 238.294 44.5334 233.614 44.5334 227.234V168.602L35.1772 159.811H71.8226L61.5449 169.098L81.6039 228.439L84.1559 222.271L66.0104 169.666L75.2957 162.789L76.7845 163.994L67.9242 170.233L84.7941 219.647L103.081 169.098L94.4336 159.811H130.37ZM50.1331 176.614V227.517C50.1331 235.316 50.8655 240.68 52.3304 243.611C53.8425 246.541 56.9376 248.668 61.6157 249.991L60.9778 248.928C56.347 245.714 54.0315 241.082 54.0315 235.032V229.786V187.886L50.1331 176.614ZM134.34 165.341L126.33 171.083V242.547L138.663 256.585H101.026L100.033 254.67H134.34L124.487 243.54V169.878L132.851 164.135L134.34 165.341ZM142.774 159.811H176.089L166.448 169.24V199.868C167.535 200.056 168.811 200.198 170.276 200.293V169.949L178.002 162.293L179.42 163.569L172.119 170.8V200.364L174.458 200.576C178.096 200.907 181.617 201.073 185.02 201.073C189.934 201.073 194.163 200.836 197.707 200.364V167.751L189.06 159.811H221.807L212.025 169.24V243.114L220.602 250.771H187.997L197.707 242.476V212.416C193.738 213.362 189.65 213.834 185.445 213.834C181.475 213.834 177.364 213.621 173.111 213.196L172.119 213.125V243.114L183.814 256.585H147.169L145.326 254.67H179.916L170.276 244.107V211.494L172.332 211.636C178.569 212.109 183.082 212.345 185.87 212.345C190.406 212.345 194.352 211.731 197.707 210.502V207.95C193.265 208.611 188.091 208.942 182.184 208.942C179.018 208.942 176.703 208.872 175.238 208.729L168.079 208.092C167.796 208.044 167.252 207.997 166.448 207.95V243.114L175.521 250.771H142.774L152.272 242.476V211.494C148.303 211.494 145.137 213.054 142.774 216.174L141.286 215.465C144.026 212.014 147.689 210.1 152.272 209.722V207.099C146.98 207.099 142.798 209.107 139.727 213.125L138.663 212.416C141.451 205.61 145.988 201.593 152.272 200.364V168.461L142.774 159.811ZM224.784 163.781L217.554 170.8V243.114L229.32 256.585H192.533L190.761 254.67H225.279L215.782 243.965V170.091L223.65 162.293L224.784 163.781ZM298.783 160.591C296.326 163.899 294.365 167.35 292.9 170.942C290.018 178.031 288.104 182.38 287.159 183.987L286.804 184.412C286.615 183.892 286.474 183.49 286.379 183.207C285.056 178.953 283.969 175.999 283.119 174.345C282.268 172.69 280.992 171.107 279.291 169.595C274.991 165.766 270.1 163.852 264.618 163.852C259.563 163.852 255.357 165.27 252.002 168.106C248.647 170.895 246.969 174.416 246.969 178.67C246.969 186.61 252.947 192.022 264.902 194.905L276.881 197.812C293.94 201.924 302.469 210.928 302.469 224.823C302.469 232.575 299.539 239.097 293.68 244.391C287.867 249.637 280.661 252.26 272.061 252.26C266.674 252.26 260.649 251.433 253.987 249.778L245.694 247.723C242.339 246.919 239.574 246.517 237.4 246.517C234.518 246.517 231.541 247.439 228.47 249.282L227.902 248.29C233.762 239.451 237.873 231.038 240.235 223.051L241.511 223.405C242.503 230.826 245.48 236.592 250.442 240.704C255.404 244.816 261.902 246.872 269.935 246.872C276.266 246.872 281.299 245.406 285.032 242.476C288.766 239.546 290.632 235.599 290.632 230.636C290.632 224.917 288.033 220.191 282.835 216.457C279.102 213.811 271.447 211.353 259.87 209.084C250.939 207.335 244.465 204.429 240.448 200.364C236.432 196.299 234.423 190.651 234.423 183.419C234.423 175.952 237.093 169.902 242.433 165.27C247.82 160.591 254.813 158.252 263.414 158.252C268.943 158.252 275.392 159.244 282.764 161.229C286.214 162.174 288.766 162.647 290.419 162.647C292.734 162.647 295.263 161.843 298.003 160.236L298.783 160.591ZM303.177 163.569L302.54 164.632C300.602 167.893 298.949 171.013 297.578 173.99C294.27 180.938 292.404 184.814 291.978 185.618L291.624 186.114L289.923 185.404L290.207 184.767C291.577 181.647 293.562 177.582 296.16 172.573L300.98 163.214L301.335 162.647L303.177 163.569ZM282.481 177.677C277.283 172.147 271.706 169.382 265.752 169.382C262.162 169.382 259.185 170.422 256.822 172.502C254.459 174.581 253.278 177.228 253.278 180.442C253.278 183.94 255.664 187.531 260.436 191.218L261.004 191.572L260.649 192.14C254.412 189.351 251.293 185.31 251.293 180.016C251.293 176.33 252.616 173.329 255.262 171.013C257.908 168.697 261.358 167.539 265.611 167.539C269.675 167.539 273.218 168.413 276.243 170.162C279.315 171.863 281.559 174.274 282.976 177.393L282.481 177.677ZM298.783 205.823C305.21 210.691 308.423 217.355 308.423 225.815C308.423 234.843 304.926 242.499 297.932 248.786C290.939 255.025 282.434 258.144 272.415 258.144C267.312 258.144 262.705 257.624 258.593 256.585L247.253 253.82C244.607 253.158 241.771 252.827 238.747 252.827C236.054 252.827 233.573 253.371 231.304 254.458L230.454 252.402C232.911 251.267 235.415 250.7 237.967 250.7C240.803 250.7 244.039 251.125 247.678 251.976L258.593 254.6C262.941 255.639 267.525 256.159 272.345 256.159C281.795 256.159 289.829 253.158 296.444 247.155C303.107 241.106 306.439 233.803 306.439 225.249C306.439 218.017 303.887 211.684 298.783 206.248V205.823ZM248.316 226.241C250.064 234.748 254.743 240.775 262.35 244.32V244.887C253.561 242.335 248.245 236.238 246.402 226.595L248.316 226.241ZM239.456 203.27L241.866 204.617C243.425 207.406 247.985 209.722 255.546 211.565L266.958 214.401C274.707 216.339 279.858 218.017 282.41 219.435C285.009 220.805 286.852 222.909 287.938 225.744L287.442 226.028C285.316 223.571 283 221.774 280.496 220.64C278.039 219.506 273.29 218.111 266.249 216.457C256.042 214.094 249.19 212.062 245.694 210.36C242.196 208.611 240.118 206.248 239.456 203.27Z" fill="white"/>
<path d="M42.5337 145.843H312.404" stroke="white" stroke-width="7" stroke-miterlimit="10"/>
<path d="M91.6174 128.663L97.7608 140.263C98.1996 141.141 97.5727 142.206 96.5697 142.206H72.7485C72.247 142.206 71.8082 141.956 71.6201 141.517L28.4284 66.7141C22.9746 57.2463 26.2343 45.1449 35.7001 39.6899L62.5304 24.2027C63.1573 23.8265 63.9722 24.0773 64.3483 24.7043L66.3543 28.1529C66.7304 28.7799 66.4797 29.595 65.8528 29.9712L43.6614 42.7623C43.0346 43.1385 42.7838 43.9536 43.1599 44.5806L43.6614 45.3957C44.0376 46.0227 44.8525 46.2735 45.4794 45.8973L67.6708 33.1063C68.2976 32.7301 69.1126 32.9809 69.4887 33.6079L69.8648 34.2976C70.241 34.9246 69.9902 35.7397 69.3633 36.1159L47.172 48.907C46.5451 49.2832 46.2943 50.0983 46.6704 50.7253L47.172 51.5404C47.5481 52.1675 48.363 52.4183 48.9899 52.0421L71.1813 39.251C71.8081 38.8748 72.6231 39.1256 72.9992 39.7526L73.3126 40.3169C73.6888 40.9439 73.438 41.7591 72.8111 42.1353L50.6198 54.9263C49.9929 55.3025 49.7421 56.1176 50.1182 56.7447L50.6198 57.5598C50.9959 58.1868 51.8108 58.4376 52.4377 58.0614L74.6291 45.2703C75.256 44.8941 76.0709 45.1449 76.447 45.7719L77.0112 46.7125C77.3873 47.3395 77.1366 48.1546 76.5097 48.5308L54.3183 61.3218C53.6914 61.6981 53.4407 62.5132 53.8168 63.1402L54.3183 63.9553C54.6944 64.5823 55.5094 64.8331 56.1363 64.4569L78.3276 51.6659C78.9545 51.2896 79.7695 51.5404 80.1456 52.1675C80.5217 52.7945 80.271 53.6096 79.6441 53.9858L57.4527 66.7769C56.8258 67.1531 56.5751 67.9682 56.9512 68.5952L57.4527 69.4103C57.8288 70.0373 58.6438 70.2881 59.2706 69.9119L81.462 57.1209C82.0889 56.7447 82.9038 56.9955 83.28 57.6225L83.6561 58.3122C84.0322 58.9392 83.7815 59.7543 83.1546 60.1305L60.9633 72.9216C60.3364 73.2978 60.0856 74.1129 60.4617 74.7399L60.9633 75.555C61.3394 76.182 62.1543 76.4328 62.7811 76.0566L84.9725 63.2656C85.5994 62.8894 86.4143 63.1402 86.7905 63.7672L87.1039 64.3315C87.48 64.9585 87.2293 65.7736 86.6024 66.1498L64.4111 78.9409C63.7842 79.3171 63.5334 80.1322 63.9095 80.7592L64.4111 81.5743C64.7872 82.2014 65.6021 82.4522 66.2289 82.0759L88.4203 69.2849C89.0472 68.9087 89.8622 69.1595 90.2383 69.7865L90.8025 70.727C91.1786 71.354 90.9278 72.1692 90.301 72.5454L68.1096 85.3364C67.4827 85.7126 67.232 86.5277 67.6081 87.1548L68.1096 87.9699C68.4857 88.5969 69.3006 88.8477 69.9275 88.4715L92.1189 75.6804C92.7458 75.3042 93.5607 75.555 93.9369 76.182L94.0622 76.3701C94.4383 76.9972 94.1876 77.8123 93.5607 78.1885L71.3693 90.9795C70.7425 91.3557 70.4917 92.1709 70.8678 92.7979L71.3693 93.613C71.7455 94.24 72.5605 94.4908 73.1873 94.1146L95.3787 81.3235C96.0055 80.9473 96.8205 81.1981 97.1966 81.8251L97.5727 82.5149C97.9489 83.1419 97.6981 83.957 97.0712 84.3332L74.8798 97.1242C74.253 97.5005 74.0022 98.3156 74.3783 98.9426L74.8798 99.7577C75.256 100.385 76.0709 100.636 76.6978 100.259L98.8892 87.4683C99.516 87.092 100.331 87.3429 100.707 87.9699L101.021 88.5342C101.397 89.1612 101.146 89.9763 100.519 90.3525L78.3276 103.144C77.7008 103.52 77.45 104.335 77.8261 104.962L78.3276 105.777C78.7038 106.404 79.5187 106.655 80.1456 106.279L102.337 93.4876C102.964 93.1114 103.779 93.3622 104.155 93.9892L104.719 94.9297C105.095 95.5567 104.844 96.3718 104.218 96.748L82.0262 109.539C81.3993 109.915 81.1486 110.73 81.5247 111.357L82.0262 112.173C82.4023 112.8 83.2173 113.05 83.8442 112.674L106.036 99.8831C106.662 99.5069 107.477 99.7577 107.853 100.385L107.916 100.447C108.292 101.074 108.042 101.89 107.415 102.266L85.1606 114.743C84.5337 115.12 84.283 115.935 84.6591 116.562L85.1606 117.377C85.5367 118.004 86.3517 118.255 86.9785 117.878L109.17 105.087C109.797 104.711 110.612 104.962 110.988 105.589L111.364 106.279C111.74 106.906 111.489 107.721 110.862 108.097L88.6711 120.888C88.0442 121.264 87.7935 122.079 88.1696 122.706L88.6711 123.521C89.0472 124.148 89.8622 124.399 90.489 124.023L112.68 111.232C113.307 110.856 114.122 111.107 114.498 111.734L114.812 112.298C115.188 112.925 114.937 113.74 114.31 114.116L92.1189 126.97C91.492 127.221 91.304 128.036 91.6174 128.663Z" fill="white"/>
<mask id="mask0_2071_294" style="mask-type:luminance" maskUnits="userSpaceOnUse" x="126" y="0" width="121" height="143">
<path d="M246.393 -3.05176e-05H126.409V142.206H246.393V-3.05176e-05Z" fill="white"/>
</mask>
<g mask="url(#mask0_2071_294)">
<path d="M137.505 161.707C134.182 152.427 132.239 142.959 130.985 133.24C129.105 118.568 128.666 103.896 128.854 89.1612C129.042 70.7897 130.17 52.4183 131.926 34.1095C132.49 27.9648 134.872 22.5725 139.824 18.6223C146.469 13.3554 155.81 17.1802 157.063 25.5821C157.565 29.0307 157.063 32.4166 156.499 35.7397C153.553 53.3588 151.045 71.1032 149.478 88.9104C147.974 106.279 147.284 123.71 148.162 141.141C148.6 149.856 149.478 158.509 150.92 167.099C151.359 169.858 150.481 172.115 148.538 173.055C146.72 173.871 144.212 173.181 142.708 170.924C140.765 167.977 139.197 164.779 137.505 161.707ZM143.335 27.6513C141.266 28.4664 140.263 30.7863 141.141 32.7928C141.956 34.7992 144.338 35.8024 146.344 34.9873C148.412 34.1095 149.353 31.8523 148.538 29.7831C147.66 27.7767 145.403 26.8362 143.335 27.6513ZM140.326 158.509C140.953 160.139 142.771 160.891 144.4 160.264C146.03 159.637 146.845 157.694 146.156 156.126C145.466 154.559 143.648 153.806 142.081 154.433C140.451 155.123 139.699 156.879 140.326 158.509Z" fill="white"/>
<path d="M152.049 156.377C151.986 156.063 151.923 155.813 151.861 155.624C151.484 151.11 151.046 146.595 150.732 142.081C150.669 141.517 150.983 140.764 151.359 140.263C152.926 138.444 154.556 136.751 156.123 134.996C156.75 134.306 157.377 133.554 157.941 132.738C159.258 130.92 159.195 130.105 157.879 128.287C156.186 126.029 154.744 123.647 154.055 120.825C153.428 118.129 153.929 115.872 155.81 113.74C172.359 94.5534 188.783 75.2415 205.27 56.0549C206.775 54.2993 208.655 52.7317 210.661 51.4777C213.796 49.4713 217.306 49.534 220.566 51.2896C226.271 54.2993 229.656 59.1273 231.035 65.3974C231.411 67.0276 230.91 68.407 229.781 69.6611C211.539 89.9763 193.297 110.291 175.118 130.669C167.658 139.009 160.198 147.285 152.801 155.624C152.613 155.875 152.362 156.063 152.049 156.377ZM154.493 148.477C154.744 148.226 154.995 148.038 155.183 147.787C157.879 144.777 160.574 141.705 163.207 138.695C176.434 123.71 189.598 108.787 202.825 93.801C209.22 86.5277 215.614 79.3171 222.008 72.0437C223.387 70.4762 224.202 68.6578 224.014 66.526C223.638 62.3877 221.256 59.4408 218.184 56.9954C218.56 57.6851 218.999 58.3121 219.438 59.0019C221.632 62.1369 221.945 65.4601 220.002 68.846C219.187 70.2254 218.309 71.6048 217.244 72.7961C212.73 78.063 208.217 83.2672 203.703 88.4714C187.53 107.156 171.294 125.841 155.058 144.464C153.929 145.78 153.741 146.972 154.493 148.477Z" fill="white"/>
</g>
<mask id="mask1_2071_294" style="mask-type:luminance" maskUnits="userSpaceOnUse" x="215" y="0" width="98" height="143">
<path d="M312.403 -3.05176e-05H215.801V142.206H312.403V-3.05176e-05Z" fill="white"/>
</mask>
<g mask="url(#mask1_2071_294)">
<path d="M243.071 209.422C243.447 200.518 243.51 191.552 244.262 182.649C245.453 167.788 247.333 152.928 248.525 138.068C249.778 122.894 250.719 107.658 251.596 92.4216C252.098 84.2704 250.342 76.4328 247.145 68.9086C245.766 65.5854 243.572 63.8925 239.999 63.2655C229.468 61.3845 222.948 50.9761 225.706 41.0066C228.527 30.7863 239.059 25.2686 249.214 28.7171C259.369 32.1657 264.008 44.3297 259.119 53.9857C257.99 56.243 257.05 58.8764 256.925 61.3218C256.172 74.7398 255.42 88.2206 255.295 101.701C255.232 105.652 256.674 109.978 258.555 113.552C261.125 118.317 262.065 122.644 260.874 128.099C255.169 154.12 249.904 180.203 244.513 206.287C244.262 207.353 244.011 208.419 243.698 209.485C243.447 209.485 243.259 209.422 243.071 209.422ZM233.354 56.6192C239.435 61.9488 248.775 61.3845 254.104 55.2397C259.432 49.095 258.868 39.8779 252.787 34.4856C246.895 29.2814 237.617 29.9084 232.226 35.8651C226.772 41.8844 227.273 51.2269 233.354 56.6192ZM254.731 124.211C254.856 124.525 255.044 124.775 255.169 125.089C256.298 124.587 257.802 124.337 258.429 123.459C259.119 122.518 258.993 120.951 259.244 119.697C258.931 119.634 258.555 119.509 258.241 119.446C257.05 121.013 255.859 122.644 254.731 124.211ZM257.802 118.38C253.728 118.192 252.599 119.697 253.79 123.647C255.107 121.891 256.298 120.324 257.802 118.38Z" fill="white"/>
</g>
<mask id="mask2_2071_294" style="mask-type:luminance" maskUnits="userSpaceOnUse" x="215" y="0" width="98" height="143">
<path d="M312.403 -3.05176e-05H215.801V142.206H312.403V-3.05176e-05Z" fill="white"/>
</mask>
<g mask="url(#mask2_2071_294)">
<path d="M263.32 112.988C260.937 109.602 259.308 107.219 260.561 102.642C264.197 89.7255 266.767 76.5583 269.588 63.4537C269.902 62.0743 269.463 60.5068 269.15 59.0646C267.645 51.4151 271.97 43.0131 279.368 39.3765C286.389 35.9279 294.851 37.5581 299.866 43.3266C305.132 49.4087 305.696 58.0614 300.932 64.7078C296.669 70.6644 290.651 72.9216 283.568 71.6676C280.684 71.166 278.427 71.793 277.048 74.0502C274.353 78.3766 271.281 82.6403 269.651 87.3429C267.144 94.6162 265.764 102.203 263.884 109.665C263.696 110.605 263.57 111.608 263.32 112.988ZM276.609 45.5212C271.406 51.3524 271.782 59.9425 277.487 65.2094C283.254 70.4763 292.219 70.0374 297.359 64.1434C302.562 58.2495 302.06 49.4714 296.168 44.2672C290.463 39.1257 281.812 39.69 276.609 45.5212Z" fill="white"/>
</g>
</svg>
