<svg width="23" height="23" viewBox="0 0 23 23" fill="none" xmlns="http://www.w3.org/2000/svg">
<path fill-rule="evenodd" clip-rule="evenodd" d="M10.9471 0.00553574C8.72329 0.135964 6.66617 0.854018 4.8877 2.12059C2.33587 3.93794 0.616291 6.75548 0.195696 9.80849C0.06825 10.7336 0.054184 11.7808 0.156995 12.6918C0.317867 14.1176 0.7676 15.5489 1.45083 16.8098L1.61277 17.1086L0.803152 20.051C0.357883 21.6694 -0.00352919 22.9964 2.60063e-05 22.9999C0.0035812 23.0034 0.374866 22.9101 0.825101 22.7925C1.27534 22.6749 1.90889 22.5093 2.23302 22.4246C3.25428 22.1577 3.94983 21.9762 5.0188 21.6974L6.05597 21.427L6.38098 21.5888C8.53373 22.6605 10.8804 23.0346 13.256 22.6848C15.08 22.4162 16.8732 21.6717 18.3658 20.5633C20.7452 18.7963 22.3381 16.2185 22.8377 13.3266C23.2119 11.1605 22.934 8.8566 22.0569 6.85248C20.7169 3.79062 18.0455 1.42416 14.8598 0.476781C14.1197 0.256695 13.4233 0.121745 12.6088 0.0405908C12.3227 0.0120772 11.2289 -0.0109914 10.9471 0.00553574ZM11.1113 1.9289C9.69438 2.01629 8.53547 2.31458 7.34361 2.89867C4.60371 4.24141 2.66064 6.82957 2.15646 9.80797C2.07085 10.3137 2.03957 10.6471 2.02672 11.1911C1.98123 13.116 2.47834 14.8695 3.55234 16.5724L3.7003 16.807L3.22157 18.5445C2.95827 19.5001 2.74946 20.2847 2.75754 20.2881C2.76564 20.2915 3.553 20.0906 4.50726 19.8418C5.46152 19.5929 6.26526 19.3838 6.29338 19.3771C6.33465 19.3673 6.40156 19.398 6.64117 19.5368C7.04169 19.7688 7.25668 19.8818 7.56376 20.0215C9.5635 20.9319 11.7926 21.1313 13.9145 20.5897C15.0142 20.309 16.1161 19.7985 17.0575 19.1335C18.3909 18.1915 19.5059 16.8529 20.1916 15.3708C21.101 13.4053 21.3067 11.222 20.7822 9.10322C20.4266 7.66693 19.7311 6.33501 18.7428 5.19785C18.4762 4.89099 17.9503 4.37545 17.6517 4.1281C16.1583 2.89088 14.4112 2.16136 12.4738 1.96595C12.1855 1.93686 11.3503 1.91416 11.1113 1.9289ZM7.19757 6.17422C7.00088 6.24219 6.86169 6.33697 6.67767 6.52823C6.05238 7.17808 5.7635 7.8307 5.71859 8.6949C5.67918 9.45344 5.94062 10.3178 6.4794 11.2103C6.62038 11.4438 7.18903 12.2653 7.41179 12.5571C7.83318 13.1093 8.2467 13.5775 8.73784 14.0584C9.76935 15.0686 10.7409 15.7164 11.9035 16.1692C13.2183 16.6813 14.1782 16.9175 14.7825 16.8777C15.2971 16.8437 15.527 16.7879 15.9031 16.6058C16.4398 16.3458 16.9297 15.9337 17.1 15.5992C17.2206 15.3623 17.3365 14.8668 17.3548 14.51C17.3689 14.2357 17.3478 14.1348 17.2588 14.0514C17.184 13.9813 15.5905 13.1971 14.9623 12.9212C14.6301 12.7753 14.4405 12.7526 14.3127 12.8432C14.2795 12.8667 14.1667 13.0003 14.062 13.14C13.8266 13.4543 13.3207 14.0588 13.2025 14.1673C13.0854 14.2747 12.9908 14.2998 12.8447 14.2622C12.7027 14.2256 11.9924 13.9034 11.7133 13.7489C11.1907 13.4595 10.6088 13.0331 10.177 12.6232C9.74129 12.2096 9.23744 11.5871 8.89073 11.034C8.60586 10.5796 8.60497 10.5189 8.87883 10.2137C9.27929 9.76746 9.39965 9.60975 9.51796 9.37631C9.66382 9.08844 9.67023 9.00151 9.56427 8.74762C9.52675 8.65767 9.35368 8.23776 9.17971 7.81448C8.67043 6.57539 8.63352 6.49468 8.50237 6.33245C8.4679 6.28981 8.39307 6.22921 8.33605 6.19777L8.23241 6.14061L7.77835 6.13551C7.34873 6.1307 7.31746 6.13277 7.19757 6.17422Z" fill="white"/>
</svg>
